<?xml version="1.0" standalone="no"?>
<!DOCTYPE svg PUBLIC "-//W3C//DTD SVG 20010904//EN"
 "http://www.w3.org/TR/2001/REC-SVG-20010904/DTD/svg10.dtd">
<svg version="1.0" xmlns="http://www.w3.org/2000/svg"
 width="165.000000pt" height="165.000000pt" viewBox="0 0 165.000000 165.000000"
 preserveAspectRatio="xMidYMid meet">
<metadata>
Created by potrace 1.14, written by Peter Selinger 2001-2017
</metadata>
<g transform="translate(0.000000,165.000000) scale(0.100000,-0.100000)"
fill="#000000" stroke="none">
<path d="M600 1582 c-37 -25 -49 -44 -50 -77 0 -24 10 -39 50 -73 61 -53 90
-106 90 -166 0 -25 5 -56 11 -70 9 -19 9 -40 1 -83 -7 -34 -12 -195 -13 -393
-1 -366 -2 -373 -63 -429 -36 -34 -36 -92 -1 -115 32 -21 56 -20 105 5 50 26
87 21 140 -21 46 -37 55 -37 119 -4 95 47 103 97 26 152 -25 17 -50 43 -55 57
-6 16 -8 225 -4 543 l5 517 39 33 c44 37 49 59 22 91 -13 18 -28 22 -71 23
-35 0 -57 -5 -62 -14 -11 -18 -103 -16 -126 3 -54 43 -118 51 -163 21z"/>
</g>
</svg>
